PathFileType	3	(X/Y/Z)	C:\Users\koon_\Desktop\
DataRate	CameraRate	NumFrames	NumMarkers	Units	OrigDataRate	OrigDataStartFrame	OrigNumFrames
100.0	100.0	13	27	mm	100.0	992	3966	
Frame#	Time	GM:LFHD			GM:RFHD			GM:LBHD			GM:RBHD			GM:C7			GM:T10			GM:CLAV			GM:STRN			GM:RBAK			GM:LSHO			GM:LUPA			GM:LELB			GM:LFRA			GM:LWRA			GM:LWRB			GM:LFIN			GM:RSHO			GM:RUPA			GM:RELB			GM:RFRA			GM:RWRA			GM:RWRB			GM:RFIN			GM:LASI			GM:RASI			GM:LPSI			GM:RPSI			
		X1	Y1	Z1	X2	Y2	Z2	X3	Y3	Z3	X4	Y4	Z4	X5	Y5	Z5	X6	Y6	Z6	X7	Y7	Z7	X8	Y8	Z8	X9	Y9	Z9	X10	Y10	Z10	X11	Y11	Z11	X12	Y12	Z12	X13	Y13	Z13	X14	Y14	Z14	X15	Y15	Z15	X16	Y16	Z16	X17	Y17	Z17	X18	Y18	Z18	X19	Y19	Z19	X20	Y20	Z20	X21	Y21	Z21	X22	Y22	Z22	X23	Y23	Z23	X24	Y24	Z24	X25	Y25	Z25	X26	Y26	Z26	X27	Y27	Z27	
992	9.91	90.309723	1602.73	-57.862514	-63.520676	1595.0328	-58.586193	91.587578	1592.1711	-190.72079	-71.469017	1586.3259	-174.168	13.308477	1420.2823	-236.14333	19.114264	1224.7268	-279.62854	32.067066	1360.7968	-82.023041	26.863201	1215.2266	-33.515137	-87.164642	1308.6694	-257.41571	192.26027	1391.6296	-175.76537	258.97433	1286.3134	-165.73108	292.59033	1074.635	-200.26295	238.95831	975.12286	-102.33206	228.57985	910.90607	-70.232895	271.56271	878.33154	-110.00484	227.17137	830.07697	-34.115707	-127.71369	1437.8522	-149.76624	-268.0246	1488.6304	-48.396576	-361.2822	1501.9319	4.1567664	-301.5394	1574.4054	29.490028	-285.11075	1673.5273	117.3625	-341.35605	1666.7716	144.19	-285.60043	1748.3173	173.94907	150.75452	898.38855	-64.167671	-139.33575	909.50928	-74.834	84.665237	953.87024	-274.14035	-51.698338	947.4856	-281.54016
993	9.92	90.129379	1602.752	-57.459118	-63.73983	1594.8911	-57.921761	91.123314	1592.3741	-190.33853	-71.827248	1586.4248	-173.57857	12.767879	1420.264	-235.85545	18.097923	1224.7502	-279.24915	32.062923	1361.0399	-81.816025	26.970785	1215.5275	-33.18597	-88.263672	1308.6827	-256.3699	191.79109	1391.7188	-176.29297	258.61563	1286.4252	-166.65877	291.94708	1074.6577	-201.20369	238.83272	975.17279	-103.01969	228.63115	910.81195	-71.003395	271.46982	878.33478	-110.93837	227.48657	829.97968	-34.828041	-126.98952	1438.399	-149.48012	-264.27386	1494.4292	-49.28421	-356.41452	1511.0206	4.7169099	-295.34186	1583.6895	24.767885	-275.34027	1686.6523	105.43863	-329.39932	1681.6239	136.29401	-275.02618	1765.5756	157.87717	150.90253	897.93915	-65.095093	-139.20558	909.44775	-74.034531	83.930237	953.88416	-274.15369	-52.319153	947.5661	-281.10269
994	9.93	89.910583	1602.7953	-57.091351	-63.850349	1594.8083	-57.161129	90.652496	1592.5649	-189.95325	-72.523483	1586.4752	-172.79308	12.153852	1420.2354	-235.54149	17.003143	1224.8049	-278.76053	32.15226	1361.238	-81.539383	27.140356	1215.8455	-32.773293	-89.418846	1308.6992	-255.2549	191.29715	1391.7783	-176.85202	258.18188	1286.4994	-167.53372	291.29153	1074.714	-202.30318	238.82047	975.1134	-103.77416	228.84021	910.80304	-71.801125	271.40659	878.32617	-112.01058	227.77631	829.74658	-35.942459	-126.18304	1439.2638	-149.74754	-260.21005	1500.1207	-50.207584	-351.19275	1519.9917	5.3088202	-288.95667	1592.8042	19.462263	-265.82095	1699.5714	93.865242	-317.78241	1696.0212	128.10258	-264.51898	1781.5339	141.29993	150.80579	898.0929	-65.64325	-138.94376	909.323	-73.170555	83.234375	953.97961	-274.21948	-52.992893	947.62408	-280.57703
995	9.94	89.807053	1602.8207	-56.758244	-63.970802	1594.7448	-56.449009	90.226479	1592.7231	-189.56879	-72.728691	1586.5092	-171.9899	11.552726	1420.1943	-235.22603	15.932187	1224.8374	-278.4389	32.208557	1361.4578	-81.248512	27.348856	1216.0973	-32.404877	-90.575058	1308.7653	-254.15511	190.78951	1391.8019	-177.42149	257.73587	1286.5177	-168.45125	290.56454	1074.7216	-203.50128	238.71419	975.0705	-104.71458	228.91786	910.65894	-72.760925	271.32928	878.2868	-113.1542	228.20096	829.61224	-36.845558	-125.37795	1439.9989	-149.62651	-256.02536	1505.6919	-51.141155	-345.68362	1528.8276	5.8697429	-282.66501	1601.5662	13.870577	-256.31247	1711.6787	82.220886	-306.24106	1709.6526	119.34228	-254.5999	1795.7911	124.29755	150.81705	897.93988	-66.366776	-138.66824	909.24579	-72.273956	82.511742	954.05609	-274.29291	-53.751934	947.69879	-280.05515
996	9.95	89.7314	1602.8353	-56.387859	-63.937977	1594.6396	-55.77457	89.823204	1592.854	-189.20508	-73.060516	1586.5509	-171.32294	10.883464	1420.1521	-234.85434	14.704976	1224.8533	-277.99728	32.411507	1361.6582	-80.861534	27.6434	1216.4128	-31.957466	-91.78418	1308.8289	-252.83325	190.35364	1391.8793	-178.00606	257.25394	1286.4789	-169.4595	289.81952	1074.6711	-204.70078	238.55623	975.03253	-105.68227	229.46187	911.271	-72.284294	271.17697	878.18817	-114.39296	228.72037	829.56128	-37.454922	-124.78901	1440.4928	-149.27583	-251.69141	1510.9955	-52.236324	-339.94467	1537.4053	6.3842587	-276.173	1609.7952	8.7819157	-246.89781	1722.8828	70.561867	-294.65448	1722.652	110.50357	-244.69916	1808.7604	106.95773	150.92473	897.94	-66.002899	-138.42068	909.18011	-71.375626	81.72718	954.11267	-274.37762	-54.524067	947.75079	-279.4751
997	9.96	89.713005	1602.8682	-56.002815	-63.998981	1594.6056	-55.072338	89.458046	1592.9879	-188.91327	-73.405472	1586.5973	-170.63165	10.270712	1420.0665	-234.50432	13.501953	1224.9092	-277.50375	32.62384	1361.8267	-80.662117	27.949497	1216.6118	-31.557083	-93.070564	1308.9617	-251.50487	189.93211	1391.8588	-178.73111	256.88409	1286.4799	-170.40526	289.10178	1074.613	-206.11565	238.56477	974.9292	-106.61667	229.59433	911.16882	-73.406662	271.05048	878.09296	-115.73508	229.23082	829.38757	-38.398159	-123.91061	1441.4524	-149.10297	-247.29219	1516.1263	-53.339176	-333.95035	1545.6705	6.7104897	-269.47354	1617.366	4.0197153	-237.44705	1733.0419	59.083561	-283.65244	1734.7417	101.4034	-235.1311	1820.4083	89.684937	152.85866	898.31268	-64.715126	-138.19366	909.09631	-70.482925	80.947998	954.16803	-274.40588	-55.399372	947.87079	-278.86371
998	9.97	89.779434	1602.881	-55.733376	-63.923813	1594.5529	-54.32954	89.120689	1593.123	-188.61418	-73.96492	1586.5295	-169.8806	9.6739597	1419.9684	-234.14423	12.290958	1224.9431	-277.01328	32.911777	1362.0193	-80.361	28.405149	1216.8474	-31.161232	-94.284744	1309.1299	-250.18773	189.54887	1391.7643	-179.48254	256.43188	1286.3256	-171.49321	288.34	1074.4641	-207.52536	238.53302	974.79828	-107.74474	229.92523	910.92615	-74.006844	271.06631	878.06189	-117.10815	229.65132	829.1709	-39.464226	-122.92451	1442.2938	-149.14456	-242.90395	1520.9695	-54.412033	-327.99353	1553.7236	7.0469213	-262.93817	1624.4888	-1.3430741	-228.15723	1742.2938	47.750198	-272.70416	1746.0875	92.174675	-225.85123	1830.4355	72.750793	152.99834	898.28571	-65.273247	-137.97157	909.03693	-69.604866	80.103996	954.22827	-274.43942	-56.240223	947.95227	-278.26004
999	9.98	89.90757	1602.9432	-55.430534	-63.763245	1594.5077	-53.531391	88.889587	1593.2482	-188.29964	-74.172813	1586.5282	-169.15042	9.1093092	1419.866	-233.76228	10.981405	1225.2455	-277.62952	33.38311	1362.2191	-80.085419	28.915377	1217.0895	-30.803497	-95.473923	1309.3033	-248.73846	189.19313	1391.5905	-180.30833	256.08643	1286.1688	-172.72679	287.56891	1074.2891	-209.0842	238.56897	974.69043	-108.83626	229.67383	910.14136	-76.607353	270.93289	877.89044	-118.50536	230.07639	829.03687	-40.377342	-122.21457	1442.7325	-148.32315	-238.47539	1525.5488	-55.507072	-321.83868	1561.563	7.2535439	-256.37399	1631.186	-6.2758946	-219.19987	1750.6459	36.704937	-261.9292	1756.5425	82.363129	-216.95982	1839.3162	56.16254	153.14058	898.34399	-65.758484	-137.69351	909.02057	-68.709435	79.269798	954.25165	-274.49588	-57.102863	948.02777	-277.6929
1000	9.99	90.089371	1603.0187	-55.127129	-63.513519	1594.4373	-52.840744	88.719048	1593.3892	-188.00652	-74.339729	1586.4502	-168.34425	8.5419779	1419.8185	-233.27803	9.7501411	1225.2688	-277.0589	33.912899	1362.3427	-79.802132	29.442102	1217.3289	-30.368698	-96.641441	1309.6455	-247.29591	188.94655	1391.447	-181.12514	255.76685	1285.9866	-173.93896	286.78662	1074.0646	-210.63867	238.6544	974.6145	-109.8866	230.35844	910.61719	-76.233192	270.72546	877.7381	-119.90543	230.48344	828.85211	-41.341713	-120.75435	1443.9108	-149.56715	-234.08372	1529.8898	-56.480808	-315.54898	1568.9469	7.4219131	-249.89082	1637.334	-10.867363	-210.46077	1758.1332	26.103662	-251.35556	1766.1456	72.912544	-208.69026	1847.064	40.35994	153.39436	898.32379	-66.033585	-137.56708	908.98645	-67.944702	78.419212	954.33258	-274.64133	-58.055958	948.10468	-277.13644
1001	10	90.386597	1603.1254	-54.868679	-63.247093	1594.3385	-52.168449	88.597763	1593.5129	-187.77412	-74.086845	1586.5931	-167.77116	8.0650969	1419.7545	-232.78697	8.5697508	1225.3433	-276.58755	34.433037	1362.5286	-79.488144	30.123947	1217.5676	-29.901075	-97.765442	1309.9785	-245.78554	188.67395	1391.2537	-182.00017	255.47331	1285.6902	-175.41478	286.06503	1073.7786	-212.31372	238.65991	974.37177	-111.13662	230.41716	910.50702	-77.588707	270.5069	877.52246	-121.3584	230.96988	828.74426	-42.352154	-119.72971	1444.5626	-149.38048	-229.64021	1533.9911	-57.596931	-309.17911	1576.1241	7.3922257	-243.43507	1643.1919	-15.054195	-202.16785	1764.9614	15.802428	-241.09299	1775.1755	63.610889	-200.70586	1853.5162	26.168211	153.49193	898.33228	-66.434822	-137.28743	909.02039	-67.083626	77.548439	954.36438	-274.74832	-58.934757	948.14935	-276.54822
1002	10.01	90.689117	1603.1846	-54.674248	-62.888077	1594.2792	-51.584373	88.588005	1593.6034	-187.53317	-74.049812	1586.5435	-167.19502	7.6863017	1419.7346	-232.2982	7.3918686	1225.4344	-276.15048	35.164169	1362.6755	-79.209053	31.011703	1217.897	-29.3381	-98.822746	1310.358	-244.21423	188.42715	1391.0488	-182.89999	255.16835	1285.3956	-177.01093	285.2688	1073.4175	-214.02051	238.61017	974.18353	-112.27532	230.61201	910.31744	-78.59227	269.8071	876.89844	-122.55891	231.38187	828.6344	-43.76503	-118.76991	1445.1693	-149.07133	-225.19212	1537.8827	-58.631721	-302.69308	1582.954	7.1163907	-237.33977	1648.5758	-19.68453	-194.23747	1770.9128	5.9974709	-231.35133	1783.1642	54.670929	-193.36639	1859.264	11.908373	153.50121	898.33594	-67.067215	-137.04059	908.96851	-66.290024	76.645813	954.46869	-275.04404	-59.842476	948.1886	-276.01535
1003	10.02	91.122025	1603.218	-54.50771	-62.544682	1594.2749	-51.14082	88.609566	1593.625	-187.32132	-73.984451	1586.4822	-166.5708	7.2649655	1419.7129	-231.79034	6.2587514	1225.5026	-275.60226	35.789459	1362.8376	-78.905334	31.785727	1218.1355	-28.824974	-99.8685	1310.7648	-242.72716	188.19519	1390.786	-183.79178	254.89894	1285.0806	-178.75215	284.46619	1073.0237	-215.79745	238.51898	973.94147	-113.52969	230.67203	910.12396	-79.914017	269.53119	876.65173	-124.07081	231.78188	828.54431	-44.84581	-117.90461	1445.7881	-148.7701	-220.77432	1541.5674	-59.704651	-296.32098	1589.4282	6.9045115	-231.35287	1653.6538	-23.850344	-186.80826	1776.3738	-3.3264277	-222.02458	1790.4299	46.151226	-186.84094	1864.0997	-1.3488973	153.69923	898.39136	-67.427872	-136.87096	908.9389	-65.521156	75.712273	954.46393	-275.34943	-60.706047	948.19336	-275.47266
1004	10.03	91.624908	1603.2921	-54.329861	-62.278172	1594.2151	-51.052132	88.694084	1593.6414	-187.21446	-73.911537	1586.4021	-165.88278	6.8202262	1419.6608	-231.25797	5.1946244	1225.5815	-275.08194	36.382935	1362.9375	-78.692368	32.742744	1218.4375	-28.350519	-100.81627	1311.1489	-241.22237	187.968	1390.5425	-184.67781	254.55788	1284.7336	-180.31416	283.75729	1072.6482	-217.65956	238.49406	973.73529	-114.90143	230.83511	909.95673	-81.008522	269.51547	876.52136	-125.49435	232.09422	828.41772	-45.872177	-117.10146	1446.464	-148.39377	-216.41504	1545.1057	-60.54607	-290.18896	1595.5613	6.7234907	-225.58733	1658.3779	-27.715076	-179.54222	1781.201	-12.122151	-213.03	1796.918	38.138916	-180.75002	1868.0627	-13.681361	153.75407	898.37317	-67.884682	-136.76003	908.92841	-64.852127	74.834465	954.44824	-275.49979	-61.532322	948.18066	-274.99112
